<svg xmlns="http://www.w3.org/2000/svg" viewBox="0 0 1497.4 2740.89"><defs><style>.cls-1{isolation:isolate;}.cls-2{fill:#c7c6c6;}.cls-3{fill:#878889;opacity:0.4;mix-blend-mode:multiply;}.cls-4{fill:#fff;}.cls-5{fill:#ebebeb;}.cls-6{fill:#0d181c;}.cls-7{fill:#c70c0f;}.cls-8{fill:none;stroke:#cc171e;stroke-miterlimit:10;stroke-width:5.87px;}</style></defs><title>game-board-wrapper</title><g class="cls-1"><g id="Layer_2" data-name="Layer 2"><g id="Layer_1-2" data-name="Layer 1"><polygon class="cls-2" points="1448.53 2653.07 57.38 2653.07 0 2579.37 57.38 73.7 1391.15 0 1448.53 73.7 1448.53 2653.07"/><polyline class="cls-3" points="1391.15 7.14 1497.39 77.31 1497.39 2740.89 248.76 2740.89 161.1 2653.07"/><rect class="cls-4" y="3.71" width="1391.15" height="2573.03"/><polygon class="cls-5" points="1391.15 2579.37 1448.53 2653.07 57.38 2653.07 0 2579.37 1391.15 2579.37"/><path class="cls-6" d="M1230.56,2630.61c2.85,4.61,10.74,8.13,17.66,7.92s10.18-4.17,7.23-8.93-10.89-8.37-17.72-8-10,4.44-7.17,9m-7.29.39c-4.48-7.25.59-13.74,11.36-14.44s23.49,5.18,28.22,12.83-.46,13.94-11.54,14.14-23.56-5.29-28-12.53"/><path class="cls-6" d="M1278.31,2629.08c3,4.91,11.2,8.89,18.27,8.92s10.31-4,7.18-9-11.35-9.12-18.34-9-10.15,4.23-7.11,9.13m-7.46.13c-4.77-7.73.25-14.29,11.27-14.59s24.18,6.3,29.21,14.42-.13,14.48-11.46,14.28-24.24-6.38-29-14.11"/><path class="cls-7" d="M1325.7,2629.27c3.21,5.2,11.65,9.61,18.87,9.89s10.45-3.73,7.14-9.09-11.8-9.84-19-10-10.28,4-7.06,9.21m-7.62-.14c-5.06-8.19-.07-14.81,11.2-14.7s24.86,7.4,30.17,16,.18,15-11.4,14.38-24.91-7.47-30-15.66"/><polyline class="cls-8" points="1407.22 23.29 1407.22 2598.26 15.3 2598.26"/></g></g></g></svg>