<svg xmlns="http://www.w3.org/2000/svg" viewBox="0 0 554.39 135.57"><defs><style>.cls-1{fill:#cc171e;}</style></defs><title>segro</title><g id="Layer_2" data-name="Layer 2"><g id="Layer_1-2" data-name="Layer 1"><path class="cls-1" d="M418.82,67.78a67.79,67.79,0,1,1,67.78,67.79,67.78,67.78,0,0,1-67.78-67.79m25.16,0A42.63,42.63,0,1,0,486.6,25.15,42.62,42.62,0,0,0,444,67.78"/><path d="M305.31,65l-1.1,58.49a111.58,111.58,0,0,1-50.13,12.07c-42.91,0-71.42-27.23-71.42-67.09,0-37.84,28.69-68.36,74.89-68.36,13.87,0,26.49,2.56,39.69,7v22.3c-6.42-3.66-19.6-11.15-38.05-11.15-29.75,0-51.49,20.47-51.49,49.9,0,27.79,19,50.09,48.75,50.09,13.52,0,21.19-3.84,25-5.85L282,82.68H249L259.74,65Zm-122.69,48.9L172,132.31H98.54V3.26h75.68V21.53H122.49V55.9h44.6V74.18h-44.6v39.67ZM0,128.2V105.9c10.23,6.95,22.12,11.88,34.54,11.88,18.1,0,25.05-11.15,25.05-19.92,0-12.81-11.15-17.19-20.11-20.85l-8.23-3.29C23.58,70.25,15,66.41,8.59,58.92A32.47,32.47,0,0,1,.73,37.54C.73,18.16,16.81.06,46.61.06a77.34,77.34,0,0,1,31.8,6.76V28.58a47.4,47.4,0,0,0-30.34-11c-16.45,0-22.48,9.88-22.48,17.92,0,11.7,11.7,16.82,21.2,20.65L55.93,60c7.49,3.48,15.91,7.32,21.75,14.81A34.11,34.11,0,0,1,85,96.21c0,21.75-18.28,39.3-48.62,39.3A99.25,99.25,0,0,1,0,128.2M345.31,20.79V60.87l10.24,0a75.73,75.73,0,0,0,12.07-1.13c11.51-2.19,17-10.42,17-19.74,0-14.07-10.8-19.19-23-19.19Zm43.14,50.28,37.65,61.24H399.24L365.06,76.19c-7.5.73-8.78.73-19.75.73v55.39H321.55V3.26H364a77.64,77.64,0,0,1,18.1,1.64c19.56,4.76,26.87,20.29,26.87,33.63,0,20.66-14.8,29.25-20.47,32.54"/></g></g></svg>